<?xml version="1.0" encoding="UTF-8"?>
<svg width="205px" height="140px" viewBox="0 0 205 140" version="1.1" xmlns="http://www.w3.org/2000/svg" xmlns:xlink="http://www.w3.org/1999/xlink">
    <!-- Generator: Sketch 53.2 (72643) - https://sketchapp.com -->
    <title>Super Responsible logo</title>
    <g id="Page-1" stroke="none" stroke-width="1" fill="none" fill-rule="evenodd">
        <g id="iPhone-XR-Copy-2" transform="translate(-104.000000, -328.000000)" fill="#FFFFFF">
            <g id="Group-2" transform="translate(80.000000, 328.000000)">
                <text id="Super-Responsible" font-family="Poppins-Bold, Poppins" font-size="33" font-weight="bold" line-spacing="33" letter-spacing="0.0507692397">
                    <tspan x="58.1366923" y="96.4359436">Super </tspan>
                    <tspan x="4.79726918" y="129.435944">Responsible</tspan>
                </text>
                <g id="noun_Piggy-Bank_2738852" transform="translate(98.000000, 0.000000)" fill-rule="nonzero">
                    <g id="Group">
                        <path d="M67,28.6011292 C67,26.1619875 65.6528214,23.9571417 63.4761589,22.8426958 L61.5494304,21.8762708 C60.9593518,21.5776917 60.2397,21.8243125 59.9464554,22.4208667 C59.6520143,23.0185083 59.8939321,23.7436292 60.4862839,24.0403958 L62.4035607,25.0027125 C63.7424839,25.6877167 64.6071429,27.1007417 64.6071429,28.6011292 C64.6071429,29.6825875 64.1935375,30.6903375 63.4329679,31.4496542 C62.6921393,32.2078833 61.6943179,32.625 60.6229161,32.625 L60.583075,32.625 C58.9562911,25.7080167 52.8031786,20.5416667 45.4642857,20.5416667 L41.3699875,20.5416667 C40.4371321,18.3683583 38.3053357,16.9166667 35.8928571,16.9166667 C33.4732,16.9166667 31.3373357,18.3776625 30.4136929,20.5416667 L21.5357143,20.5416667 C21.4621339,20.5416667 21.3908268,20.5440833 21.3207161,20.5475875 L12.6267482,14.7023958 C12.2423357,14.4433292 11.743425,14.4322125 11.3474071,14.6729125 C10.9512696,14.9142167 10.7281357,15.3644417 10.7737196,15.8292875 L11.6055964,24.1855167 C9.66379286,25.809275 8.15533571,27.8683958 7.19376607,30.2083333 L2.39285714,30.2083333 C1.07379464,30.2083333 0,31.2922083 0,32.625 L0,39.875 C0,41.2077917 1.07379464,42.2916667 2.39285714,42.2916667 L7.1949625,42.2916667 C9.27471429,47.3344042 13.8185107,50.9335458 19.1428571,51.7730958 L19.1428571,55.5833333 C19.1428571,56.916125 20.2166518,58 21.5357143,58 L27.5178571,58 C28.8369196,58 29.9107143,56.916125 29.9107143,55.5833333 L29.9107143,51.9583333 L38.2857143,51.9583333 L38.2857143,55.5833333 C38.2857143,56.916125 39.3595089,58 40.6785714,58 L46.6607143,58 C47.9797768,58 49.0535714,56.916125 49.0535714,55.5833333 L49.0535714,51.5217625 C56.0452607,49.8667083 61.0178571,43.6002917 61.0178571,36.25 C61.0178571,35.8310708 60.9875875,35.4196333 60.9555232,35.0089208 C62.5434232,34.9266333 64.0192179,34.2892375 65.1259143,33.1583583 C66.3340679,31.9518375 67,30.3333958 67,28.6011292 Z M35.8928571,19.3333333 C37.5332804,19.3333333 38.9610982,20.4495917 39.3711143,22.0768542 C39.4458911,22.3447417 39.4821429,22.6332917 39.4821429,22.9583333 C39.4821429,23.8533458 39.15145,24.7129542 38.5625679,25.375 L33.2230268,25.375 C32.6342643,24.7129542 32.3035714,23.8533458 32.3035714,22.9583333 C32.3035714,22.6389708 32.3404214,22.3563417 32.4125661,22.0924417 C32.4163946,22.0775792 32.4174714,22.0628375 32.4215393,22.047975 C32.8246161,20.4495917 34.2524339,19.3333333 35.8928571,19.3333333 Z M47.6597321,49.3404792 C47.0824554,49.4378708 46.6607143,49.9417458 46.6607143,50.5322583 L46.6607143,55.5833333 L40.6785714,55.5833333 L40.6785714,50.75 C40.6785714,50.0827583 40.1434089,49.5416667 39.4821429,49.5416667 L28.7142857,49.5416667 C28.0530196,49.5416667 27.5178571,50.0827583 27.5178571,50.75 L27.5178571,55.5833333 L21.5357143,55.5833333 L21.5357143,50.7016667 C21.5357143,50.0733333 21.0590571,49.5500042 20.4385893,49.4974417 C15.2988518,49.0631667 10.8659643,45.6028625 9.14490179,40.6809583 C8.97560714,40.1977458 8.52335714,39.875 8.01631071,39.875 L2.39285714,39.875 L2.39285714,32.625 L8.01631071,32.625 C8.52455357,32.625 8.97668393,32.3010458 9.14502143,31.8172292 C9.99448571,29.3763958 11.5297429,27.2564958 13.5837714,25.6859042 C13.9167375,25.4316708 14.0944071,25.0209583 14.0522929,24.601425 L13.4084946,18.1308 L20.3230143,22.7801042 C20.6150625,22.975975 20.9761446,22.991925 21.3301679,22.9683625 C21.3978857,22.96365 21.4656036,22.9583333 21.5357143,22.9583333 L29.9107143,22.9583333 C29.9107143,23.7993333 30.0885036,24.620275 30.4162054,25.375 L26.3214286,25.375 C25.6601625,25.375 25.125,25.9160917 25.125,26.5833333 C25.125,27.250575 25.6601625,27.7916667 26.3214286,27.7916667 L32.7347643,27.7916667 L39.0510696,27.7916667 L45.4642857,27.7916667 C46.1255518,27.7916667 46.6607143,27.250575 46.6607143,26.5833333 C46.6607143,25.9160917 46.1255518,25.375 45.4642857,25.375 L41.3695089,25.375 C41.6972107,24.620275 41.875,23.7993333 41.875,22.9583333 L45.4642857,22.9583333 C52.7211036,22.9583333 58.625,28.920975 58.625,36.25 C58.625,42.7601375 54.0133661,48.265425 47.6597321,49.3404792 Z" id="Shape"></path>
                        <ellipse id="Oval" cx="16.75" cy="30.2083333" rx="2.39285714" ry="2.41666667"></ellipse>
                        <path d="M41.875,12.0833333 C45.1733143,12.0833333 47.8571429,9.3728 47.8571429,6.04166667 C47.8571429,2.71053333 45.1733143,0 41.875,0 C38.5766857,0 35.8928571,2.71053333 35.8928571,6.04166667 C35.8928571,9.3728 38.5766857,12.0833333 41.875,12.0833333 Z M41.875,2.41666667 C43.8542518,2.41666667 45.4642857,4.04272083 45.4642857,6.04166667 C45.4642857,8.0406125 43.8542518,9.66666667 41.875,9.66666667 C39.8957482,9.66666667 38.2857143,8.0406125 38.2857143,6.04166667 C38.2857143,4.04272083 39.8957482,2.41666667 41.875,2.41666667 Z" id="Shape"></path>
                        <path d="M26.3214286,16.9166667 C29.6197429,16.9166667 32.3035714,14.2061333 32.3035714,10.875 C32.3035714,7.54386667 29.6197429,4.83333333 26.3214286,4.83333333 C23.0231143,4.83333333 20.3392857,7.54386667 20.3392857,10.875 C20.3392857,14.2061333 23.0231143,16.9166667 26.3214286,16.9166667 Z M26.3214286,7.25 C28.3006804,7.25 29.9107143,8.87605417 29.9107143,10.875 C29.9107143,12.8739458 28.3006804,14.5 26.3214286,14.5 C24.3421768,14.5 22.7321429,12.8739458 22.7321429,10.875 C22.7321429,8.87605417 24.3421768,7.25 26.3214286,7.25 Z" id="Shape"></path>
                    </g>
                </g>
            </g>
        </g>
    </g>
</svg>